<svg id="发票查验" xmlns="http://www.w3.org/2000/svg" width="56" height="56" viewBox="0 0 56 56">
  <rect id="Rectangle_307" data-name="Rectangle 307" width="56" height="56" fill="#c4c4c4" opacity="0"/>
  <rect id="Rectangle_308" data-name="Rectangle 308" width="46" height="46" rx="4" transform="translate(5 5)" fill="#f17c38"/>
  <g id="路径_39" data-name="路径 39" transform="translate(-121.125 -237.122)" fill="none" stroke-miterlimit="10">
    <path d="M162.448,265.137a2.686,2.686,0,0,1,2.677-2.686V252.122h-32v10.329a2.687,2.687,0,0,1,0,5.373v10.328h32V267.824A2.687,2.687,0,0,1,162.448,265.137Z" stroke="none"/>
    <path d="M 136.125 255.1220092773438 L 136.125 260.3165588378906 C 137.73095703125 261.3237609863281 138.802001953125 263.1099243164062 138.802001953125 265.1369934082031 C 138.802001953125 267.1644287109375 137.73095703125 268.9508972167969 136.125 269.9582824707031 L 136.125 275.1520080566406 L 162.125 275.1520080566406 L 162.125 269.9582824707031 C 160.51904296875 268.9508972167969 159.447998046875 267.1644287109375 159.447998046875 265.1369934082031 C 159.447998046875 263.1099243164062 160.51904296875 261.3237609863281 162.125 260.3165588378906 L 162.125 255.1220092773438 L 136.125 255.1220092773438 M 133.125 252.1220092773438 L 165.125 252.1220092773438 L 165.125 262.4509887695312 C 163.6450042724609 262.4570007324219 162.447998046875 263.656005859375 162.447998046875 265.1369934082031 C 162.447998046875 266.6180114746094 163.6450042724609 267.8179931640625 165.125 267.8240051269531 L 165.125 278.1520080566406 L 133.125 278.1520080566406 L 133.125 267.8240051269531 C 134.60400390625 267.8179931640625 135.802001953125 266.6180114746094 135.802001953125 265.1369934082031 C 135.802001953125 263.656005859375 134.60400390625 262.4570007324219 133.125 262.4509887695312 L 133.125 252.1220092773438 Z" stroke="none" fill="#fff"/>
  </g>
  <path id="路径_40" data-name="路径 40" d="M21.983,22.405l5.211-1.467,5.211,1.467a19.9,19.9,0,0,1-1,6.484c-1.053,2.488-4.211,3.467-4.211,3.467s-3.159-.979-4.211-3.467A19.9,19.9,0,0,1,21.983,22.405Z" transform="translate(1 1.586)" fill="none" stroke="#fff" stroke-width="3"/>
</svg>
