<svg id="发票入帐标识" xmlns="http://www.w3.org/2000/svg" width="56" height="56" viewBox="0 0 56 56">
  <rect id="Rectangle_313" data-name="Rectangle 313" width="56" height="56" fill="#c4c4c4" opacity="0"/>
  <rect id="矩形" width="46" height="46" rx="4" transform="translate(5 5)" fill="#12b787"/>
  <g id="路径_48" data-name="路径 48" transform="translate(293.152 -125.11) rotate(90)" fill="none" stroke-miterlimit="10">
    <path d="M162.448,265.137a2.686,2.686,0,0,1,2.677-2.686V252.122h-24v26.03h24V267.824A2.687,2.687,0,0,1,162.448,265.137Z" stroke="none"/>
    <path d="M 144.125 255.1220092773438 L 144.125 275.1520080566406 L 162.125 275.1520080566406 L 162.125 269.9582824707031 C 160.51904296875 268.9508972167969 159.447998046875 267.1644287109375 159.447998046875 265.1369934082031 C 159.447998046875 263.1099243164062 160.51904296875 261.3237609863281 162.125 260.3165588378906 L 162.125 255.1220092773438 L 144.125 255.1220092773438 M 141.125 252.1220092773438 L 165.125 252.1220092773438 L 165.125 262.4509887695312 C 163.6450042724609 262.4570007324219 162.447998046875 263.656005859375 162.447998046875 265.1369934082031 C 162.447998046875 266.6180114746094 163.6450042724609 267.8179931640625 165.125 267.8240051269531 L 165.125 278.1520080566406 L 141.125 278.1520080566406 C 141.125 267.1575317382812 141.125 262.8582763671875 141.125 252.1220092773438 Z" stroke="none" fill="#fff"/>
  </g>
  <line id="直线_35" data-name="直线 35" x2="33" transform="translate(11.5 17.5)" fill="none" stroke="#fff" stroke-linecap="round" stroke-width="3"/>
  <line id="直线_36" data-name="直线 36" y2="11" transform="translate(28 28.5) rotate(180)" fill="none" stroke="#fff" stroke-linecap="round" stroke-width="3"/>
  <path id="路径_49" data-name="路径 49" d="M166.774,289.905l5-5,5,5" transform="translate(199.774 314.122) rotate(180)" fill="none" stroke="#fff" stroke-linecap="round" stroke-width="3"/>
</svg>
