<svg xmlns="http://www.w3.org/2000/svg" width="56" height="56" viewBox="0 0 56 56">
  <path fill-rule="evenodd" clip-rule="evenodd" d="M9 5H47C49.2091 5 51 6.79086 51 9V47C51 49.2091 49.2091 51 47 51H9C6.79086 51 5 49.2091 5 47V9C5 6.79086 6.79086 5 9 5Z" fill="#E86060"></path>
  <path fill-rule="evenodd" clip-rule="evenodd" d="M13 15C12.4477 15 12 15.4477 12 16V25C13.6569 25 15 26.3431 15 28C15 29.6569 13.6569 31 12 31V40C12 40.5523 12.4477 41 13 41H43C43.5523 41 44 40.5523 44 40V31C42.3431 31 41 29.6569 41 28C41 26.3431 42.3431 25 44 25V16C44 15.4477 43.5523 15 43 15H13ZM15 18H41L40.9995 22.803C39.2064 23.8405 38 25.7793 38 28C38 30.1352 39.1154 32.01 40.7953 33.0734L40.9995 33.197L41 38H15L15 33.1973C16.7934 32.1599 18 30.2209 18 28C18 25.8646 16.8844 23.9897 15.2043 22.9263L15 22.8027L15 18ZM25.0104 21.9896L20.0607 26.9393C19.4749 27.5251 19.4749 28.4749 20.0607 29.0607L20.0769 29.0755L25.0104 34.0104C25.5962 34.5962 26.5459 34.5962 27.1317 34.0104C27.7175 33.4246 27.7175 32.4749 27.1317 31.8891L24.744 29.4993L34.5 29.5C35.3284 29.5 36 28.8284 36 28C36 27.1716 35.3284 26.5 34.5 26.5L24.744 26.4993L27.1317 24.1109C27.7175 23.5251 27.7175 22.5754 27.1317 21.9896C26.5459 21.4038 25.5962 21.4038 25.0104 21.9896Z" fill="white"></path>
</svg>