<svg xmlns="http://www.w3.org/2000/svg" width="56" height="56" viewBox="0 0 56 56">
  <path d="M47 5H9C6.79086 5 5 6.79086 5 9V47C5 49.2091 6.79086 51 9 51H47C49.2091 51 51 49.2091 51 47V9C51 6.79086 49.2091 5 47 5Z" fill="#12B787"></path>
  <path d="M28.4297 28.3246C27.8497 28.9146 27.4297 31.4846 27.4297 31.4846C27.4297 31.4846 30.0097 31.0346 30.5897 30.4846L43.5897 17.5345L41.4697 15.4045L28.4297 28.3246Z" fill="white"></path>
  <path d="M43.3198 13.4346L42.0098 14.7446L44.1298 16.8646L45.4398 15.5546C45.58 15.416 45.6914 15.2509 45.7675 15.069C45.8435 14.887 45.8826 14.6918 45.8826 14.4946C45.8826 14.2974 45.8435 14.1022 45.7675 13.9202C45.6914 13.7382 45.58 13.5732 45.4398 13.4346C45.1572 13.1561 44.7765 13 44.3798 13C43.9831 13 43.6023 13.1561 43.3198 13.4346Z" fill="white"></path>
  <path d="M41.13 23.7546V37.9746H15V33.5846H15.12C15.8755 33.5859 16.6238 33.4381 17.322 33.1496C18.0202 32.8611 18.6546 32.4376 19.1888 31.9034C19.723 31.3692 20.1465 30.7348 20.435 30.0366C20.7235 29.3383 20.8713 28.5901 20.87 27.8346C20.87 26.3096 20.2642 24.847 19.1859 23.7687C18.1075 22.6904 16.645 22.0846 15.12 22.0846H15V17.7046H35.38L38.38 14.7046H12V25.1446L15.07 25.0846H15.19C15.9071 25.1029 16.5888 25.4006 17.0894 25.9144C17.5901 26.4281 17.8702 27.1172 17.87 27.8346C17.8728 28.5527 17.5935 29.2433 17.0923 29.7576C16.5911 30.2719 15.908 30.5689 15.19 30.5846H15.07L12 30.5046V40.9646H44.13V20.7546L41.13 23.7546Z" fill="white"></path>
</svg>