<svg xmlns="http://www.w3.org/2000/svg" width="56" height="56" viewBox="0 0 56 56">
  <path fill-rule="evenodd" clip-rule="evenodd" d="M9 5H47C49.2091 5 51 6.79086 51 9V47C51 49.2091 49.2091 51 47 51H9C6.79086 51 5 49.2091 5 47V9C5 6.79086 6.79086 5 9 5Z" fill="#5590E8"></path>
  <path fill-rule="evenodd" clip-rule="evenodd" d="M43 15C43.5523 15 44 15.4477 44 16V25C42.3431 25 41 26.3431 41 28C41 29.6569 42.3431 31 44 31V40C44 40.5523 43.5523 41 43 41H13C12.4477 41 12 40.5523 12 40V31C13.6569 31 15 29.6569 15 28C15 26.3431 13.6569 25 12 25V16C12 15.4477 12.4477 15 13 15H43ZM41 18H15L15.0005 22.803C16.7936 23.8405 18 25.7793 18 28C18 30.1352 16.8846 32.01 15.2047 33.0734L15.0005 33.197L15 38H41L41 33.1973C39.2066 32.1599 38 30.2209 38 28C38 25.8646 39.1156 23.9897 40.7957 22.9263L41 22.8027L41 18ZM30.9896 21.9896L35.9393 26.9393C36.5251 27.5251 36.5251 28.4749 35.9393 29.0607L35.9231 29.0755L30.9896 34.0104C30.4038 34.5962 29.4541 34.5962 28.8683 34.0104C28.2825 33.4246 28.2825 32.4749 28.8683 31.8891L31.256 29.4993L21.5 29.5C20.6716 29.5 20 28.8284 20 28C20 27.1716 20.6716 26.5 21.5 26.5L31.256 26.4993L28.8683 24.1109C28.2825 23.5251 28.2825 22.5754 28.8683 21.9896C29.4541 21.4038 30.4038 21.4038 30.9896 21.9896Z" fill="white"></path>
</svg>