<svg fill="none" xmlns="http://www.w3.org/2000/svg" viewBox="0 0 56 56" class="design-iconfont">
  <path d="M47 5H9C6.79086 5 5 6.79086 5 9V47C5 49.2091 6.79086 51 9 51H47C49.2091 51 51 49.2091 51 47V9C51 6.79086 49.2091 5 47 5Z" fill="#5590E8"/>
  <path d="M26.683 24.3476L16 15H40L29.317 24.3476C28.563 25.0074 27.437 25.0074 26.683 24.3476Z" stroke="#fff" stroke-width="3"/>
  <path d="M15 16V21.1945C16.606 22.2018 17.677 23.9879 17.677 26.015C17.677 28.0424 16.606 29.8289 15 30.8363V36.03H41V30.8363C39.394 29.8289 38.323 28.0424 38.323 26.015C38.323 24.4992 38.9122 23.0735 39.9822 22.0005C40.2936 21.6883 40.635 21.4166 41 21.1882V16H15ZM12 13H44V23.329C42.52 23.335 41.323 24.534 41.323 26.015C41.323 27.496 42.52 28.696 44 28.702V39.03H12V28.702C13.479 28.696 14.677 27.496 14.677 26.015C14.677 24.534 13.479 23.335 12 23.329V13Z" fill="#fff"/>
</svg>
