<svg xmlns="http://www.w3.org/2000/svg" width="56" height="56" viewBox="0 0 56 56">
  <path d="M47 5H9C6.79086 5 5 6.79086 5 9V47C5 49.2091 6.79086 51 9 51H47C49.2091 51 51 49.2091 51 47V9C51 6.79086 49.2091 5 47 5Z" fill="#F17C38"></path>
  <path d="M41.13 19.54V39.79H15V35.4H15.12C15.8755 35.4013 16.6238 35.2535 17.322 34.965C18.0202 34.6765 18.6546 34.253 19.1888 33.7188C19.723 33.1846 20.1465 32.5502 20.435 31.852C20.7235 31.1538 20.8713 30.4055 20.87 29.65C20.87 28.125 20.2642 26.6625 19.1859 25.5841C18.1075 24.5058 16.645 23.9 15.12 23.9H15V19.52H41.13M44.13 16.52H12V26.96L15.07 26.9H15.19C15.9071 26.9183 16.5888 27.216 17.0894 27.7298C17.5901 28.2436 17.8702 28.9326 17.87 29.65C17.8728 30.3682 17.5935 31.0587 17.0923 31.573C16.5911 32.0873 15.908 32.3843 15.19 32.4H15.07L12 32.32V42.78H44.13V16.54V16.52Z" fill="white"></path>
  <path fill-rule="evenodd" clip-rule="evenodd" d="M27.1412 13.5856C27.9706 13.1688 28.9316 13.0984 29.8128 13.3901C30.6941 13.6818 31.4233 14.3116 31.8402 15.141L36.4018 24.2166C36.6209 24.6567 36.6567 25.1657 36.5015 25.6323C36.3461 26.0995 36.0118 26.486 35.5719 26.7071C35.1335 26.9274 34.6256 26.9646 34.1598 26.8104C33.694 26.6563 33.3085 26.3234 33.0882 25.885L30.3262 20.39C29.9542 19.6498 29.0526 19.3514 28.3124 19.7234C27.5722 20.0955 27.2737 20.9971 27.6458 21.7373L30.4077 27.2322C30.9854 28.3815 31.9959 29.2543 33.2171 29.6585C34.4382 30.0627 35.7699 29.9652 36.9192 29.3876C38.0686 28.8098 38.9421 27.7999 39.3482 26.5792C39.7542 25.3586 39.6597 24.0267 39.0854 22.8755L39.0834 22.8716L34.5207 13.7937C33.7465 12.2535 32.3921 11.0838 30.7555 10.5421C29.119 10.0004 27.3342 10.131 25.7939 10.9052C24.2536 11.6794 23.084 13.0338 22.5423 14.6703C22.2621 15.5168 22.1618 16.403 22.2373 17.2744C22.3089 18.0997 23.036 18.7108 23.8613 18.6392C24.6866 18.5676 25.2977 17.8406 25.2261 17.0152C25.1854 16.5459 25.2394 16.0688 25.3903 15.613C25.682 14.7318 26.3118 14.0025 27.1412 13.5856Z" fill="white"></path>
</svg>