<svg id="图层_1" data-name="图层 1" xmlns="http://www.w3.org/2000/svg" viewBox="0 0 40 40"><defs><style>.cls-1{fill-opacity:0;}.cls-2{fill:#f90;}</style></defs><title>感叹号</title><g id="税务系统组件包_GSD4.0-icon_填充_提示_感叹号" data-name="税务系统组件包/GSD4.0-icon/填充/提示/感叹号"><rect id="矩形" class="cls-1" width="40" height="40"/><path id="形状" class="cls-2" d="M20,1A19,19,0,1,1,1,20,19,19,0,0,1,20,1Zm1.5,27h-3a.5.5,0,0,0-.49.41V31.5a.5.5,0,0,0,.41.49H21.5a.5.5,0,0,0,.49-.41V28.5a.5.5,0,0,0-.41-.49Zm0-20h-3a.5.5,0,0,0-.49.41V23.5a.5.5,0,0,0,.41.49H21.5a.5.5,0,0,0,.49-.41V8.5A.5.5,0,0,0,21.59,8Z"/></g></svg>