<svg height="56" viewBox="0 0 56 56" width="56" xmlns="http://www.w3.org/2000/svg" xmlns:xlink="http://www.w3.org/1999/xlink"><mask id="a" fill="#fff"><path d="m0 0h46v46h-46z" fill="#fff" fill-rule="evenodd"/></mask><g fill="none" fill-rule="evenodd"><path d="m0 0h56v56h-56z" fill="none"/><g opacity="0"><path d="m5 5h46v46h-46z" fill="#efefef"/><g stroke="#558aff" stroke-dasharray="0 0" stroke-linejoin="round"><path d="m23.386675-91.548189v229" mask="url(#a)" opacity=".5" transform="matrix(.70710678 .70710678 -.70710678 .70710678 28.225626 -5.168)"/><path d="m23.227946-91.306809v229" mask="url(#a)" opacity=".5" transform="matrix(.25881901 .96592584 -.96592584 .25881901 44.989605 -.729084)"/><path d="m23.227916-91.289261v229" mask="url(#a)" opacity=".5" transform="matrix(-.25881908 .96592582 -.96592582 -.25881908 57.289005 11.298714)"/><path d="m22.326059-91.194884v229" mask="url(#a)" opacity=".5" transform="matrix(-.70710684 .70710672 -.70710672 -.70710684 60.445726 28.643863)"/><path d="m22.132043-91.530852v229" mask="url(#a)" opacity=".5" transform="matrix(-.96592585 .25881896 -.25881896 -.96592585 55.437769 44.29804)"/><path d="m22.197502-91.772086v229" mask="url(#a)" opacity=".5" transform="matrix(-.9659258 -.25881915 .25881915 -.9659258 43.739185 55.555941)"/></g><circle cx="28" cy="28" r="16.5" stroke="#979797"/><path d="m13.5 10.5h29v35h-29z" stroke="#d4d4d4"/><path d="m10.5 11.5h35v33h-35z" stroke="#d4d4d4"/><path d="m11.5 11.5h33v33h-33z" stroke="#979797"/><path d="m13.5 11.5h29v33h-29z" stroke="#6b6b6b"/><path d="m11.5 13.5h33v29h-33z" stroke="#6b6b6b"/></g><path d="m9 5h38c2.209139 0 4 1.790861 4 4v38c0 2.209139-1.790861 4-4 4h-38c-2.209139 0-4-1.790861-4-4v-38c0-2.209139 1.790861-4 4-4z" fill="#5590e8"/><path d="m28 28c3.8659932 0 7-3.1340068 7-7s-3.1340068-7-7-7-7 3.1340068-7 7 3.1340068 7 7 7zm3.5 4h9c.8284271 0 1.5.6715729 1.5 1.5s-.6715729 1.5-1.5 1.5h-9c-.8284271 0-1.5-.6715729-1.5-1.5s.6715729-1.5 1.5-1.5zm0 5h5c.8284271 0 1.5.6715729 1.5 1.5s-.6715729 1.5-1.5 1.5h-5c-.8284271 0-1.5-.6715729-1.5-1.5s.6715729-1.5 1.5-1.5zm-10.4411767-7c-3.8984808 0-7.0588233 3.8375597-7.0588233 8.5714283 0 1.893548 1.2641371 3.4285717 2.8235292 3.4285717h9.6764708c.8284271 0 1.5-.6715729 1.5-1.5s-.6715729-1.5-1.5-1.5h-9.6764708c-.1949235 0-.352941-.1918774-.352941-.4285717 0-3.0770149 2.0542228-5.5714283 4.5882351-5.5714283h5.4411767c.8284271 0 1.5-.6715729 1.5-1.5s-.6715729-1.5-1.5-1.5z" fill="#fff"/></g></svg>