<?xml version="1.0" encoding="UTF-8"?>
<svg width="40px" height="40px" viewBox="0 0 40 40" version="1.1" xmlns="http://www.w3.org/2000/svg" xmlns:xlink="http://www.w3.org/1999/xlink">
    <title>refresh</title>
    <g id="refresh" stroke="none" stroke-width="1" fill="none" fill-rule="evenodd">
        <rect id="矩形" fill="#3858e6" opacity="0" x="0" y="0" width="40" height="40"></rect>
        <path d="M37.0000001,5.5 L37.0000001,8.5 C37.0000001,8.74545989 36.823168,8.94960837 36.5899192,8.99194433 L36.5000001,8.99995645 L33.2711332,8.99967521 C35.6602064,12.019037 37.0000001,15.789206 37.0000001,19.7695526 C36.9774222,29.1604273 29.6502943,36.7002358 20.50177,36.9969671 C20.1672567,36.9969671 20.0000001,36.8302185 20.0000001,36.4967213 L20.0029233,33.7604255 L20.0029233,33.7604255 L20.0106091,33.558826 C20.0342075,33.1986498 20.1175574,33.0857514 20.4477085,33.0246892 L20.6342167,32.9975729 L20.6342167,32.9975729 L21.0024705,32.9612215 C27.7079572,32.4404683 33.0000001,26.7393807 33.0000001,19.7695526 C33.0000001,17.222317 32.2908333,14.7927068 30.9997559,12.7133012 L30.9999467,14.5 C31.0000204,14.7454599 30.8231723,14.9496273 30.5899282,14.9919881 L30.5000001,15 L27.5000001,15 C27.2238577,15 27.0000001,14.7761424 27.0000001,14.5 L27.0000001,5.5 C27.0000001,5.22385763 27.2238577,5 27.5000001,5 L36.5000001,5 C36.7761425,5 37.0000001,5.22385763 37.0000001,5.5 Z M3,34.4969671 L3,31.4969671 C3,31.2515072 3.17683215,31.0473587 3.41008088,31.0050228 L3.5,30.9970107 L6.72886691,30.9972919 C4.3397937,27.9779301 3,24.2077611 3,20.2274145 C3.02257787,10.8365398 10.3497058,3.29673127 19.4982301,3 C19.8327434,3 20,3.16674859 20,3.50024578 L20,5.9883003 L20,5.9883003 L19.994154,6.3428323 L19.994154,6.3428323 L19.9821383,6.52314663 C19.950187,6.81677376 19.8549302,6.91630425 19.5522917,6.97227795 L19.3657834,6.99939421 L19.3657834,6.99939421 L18.9975297,7.03574558 C12.2920429,7.55649876 7,13.2575864 7,20.2274145 C7,22.7746501 7.70916679,25.2042603 9.00024423,27.2836659 L9.0000534,25.4969671 C8.99997972,25.2515072 9.1768278,25.0473399 9.4100719,25.004979 L9.5,24.9969671 L12.5,24.9969671 C12.7761424,24.9969671 13,25.2208247 13,25.4969671 L13,34.4969671 C13,34.7731095 12.7761424,34.9969671 12.5,34.9969671 L3.5,34.9969671 C3.22385763,34.9969671 3,34.7731095 3,34.4969671 Z" id="形状" fill="#3858e6"></path>
    </g>
</svg>