<svg id="组件_43_1" data-name="组件 43 – 1" xmlns="http://www.w3.org/2000/svg" width="56" height="56" viewBox="0 0 56 56">
  <rect id="Rectangle_309" data-name="Rectangle 309" width="56" height="56" fill="#c4c4c4" opacity="0"/>
  <rect id="Rectangle_311" data-name="Rectangle 311" width="46" height="46" rx="4" transform="translate(5 5)" fill="#e86060"/>
  <g id="路径_55" data-name="路径 55" transform="translate(-121.125 -236.122)" fill="none" stroke-miterlimit="10">
    <path d="M162.448,265.137a2.686,2.686,0,0,1,2.677-2.686V252.122h-32v10.329a2.687,2.687,0,0,1,0,5.373v10.328h32V267.824A2.687,2.687,0,0,1,162.448,265.137Z" stroke="none"/>
    <path d="M 136.125 255.1220092773438 L 136.125 260.3165588378906 C 137.73095703125 261.3237609863281 138.802001953125 263.1099243164063 138.802001953125 265.1369934082031 C 138.802001953125 267.1644287109375 137.73095703125 268.9508972167969 136.125 269.9582824707031 L 136.125 275.1520080566406 L 162.125 275.1520080566406 L 162.125 269.9582824707031 C 160.51904296875 268.9508972167969 159.447998046875 267.1644287109375 159.447998046875 265.1369934082031 C 159.447998046875 263.1099243164063 160.51904296875 261.3237609863281 162.125 260.3165588378906 L 162.125 255.1220092773438 L 136.125 255.1220092773438 M 133.125 252.1220092773438 L 165.125 252.1220092773438 L 165.125 262.4509887695313 C 163.6450042724609 262.4570007324219 162.447998046875 263.656005859375 162.447998046875 265.1369934082031 C 162.447998046875 266.6180114746094 163.6450042724609 267.8179931640625 165.125 267.8240051269531 L 165.125 278.1520080566406 L 133.125 278.1520080566406 L 133.125 267.8240051269531 C 134.60400390625 267.8179931640625 135.802001953125 266.6180114746094 135.802001953125 265.1369934082031 C 135.802001953125 263.656005859375 134.60400390625 262.4570007324219 133.125 262.4509887695313 L 133.125 252.1220092773438 Z" stroke="none" fill="#fff"/>
  </g>
  <line id="直线_42" data-name="直线 42" x1="8.007" transform="translate(16.5 29.015)" fill="none" stroke="#fff" stroke-linecap="round" stroke-width="3"/>
  <path id="路径_56" data-name="路径 56" d="M166.774,289.905l5-5,5,5" transform="translate(310.129 -142.759) rotate(90)" fill="none" stroke="#fff" stroke-linecap="round" stroke-width="3"/>
  <line id="直线_45" data-name="直线 45" x1="8.007" transform="translate(39.224 29.015) rotate(180)" fill="none" stroke="#fff" stroke-linecap="round" stroke-width="3"/>
  <path id="路径_61" data-name="路径 61" d="M166.774,289.905l5-5,5,5" transform="translate(-254.405 200.789) rotate(-90)" fill="none" stroke="#fff" stroke-linecap="round" stroke-width="3"/>
</svg>
