<svg id="组件_56_1" data-name="组件 56 – 1" xmlns="http://www.w3.org/2000/svg" width="56" height="56" viewBox="0 0 56 56">
  <rect id="矩形_18" data-name="矩形 18" width="56" height="56" fill="#fff"/>
  <g id="组件_55_1" data-name="组件 55 – 1" transform="translate(5 5)">
    <rect id="矩形" width="46" height="46" rx="4" fill="#e86060"/>
    <g id="组_68" data-name="组 68" transform="translate(-2.884 -2.6)">
      <g id="组_67" data-name="组 67" transform="translate(8.845 10.17)">
        <path id="路径_81" data-name="路径 81" d="M67.255,119.374H65.709V100.409H85.647v1.416a1.3,1.3,0,1,0,2.609,0V99.1a1.306,1.306,0,0,0-1.3-1.3H64.4a1.306,1.306,0,0,0-1.3,1.3v21.574a1.306,1.306,0,0,0,1.3,1.3h2.851a1.3,1.3,0,1,0,0-2.609Z" transform="translate(-63.1 -97.8)" fill="#fff" stroke="#fff" stroke-width="0.5"/>
        <path id="路径_82" data-name="路径 82" d="M245.22,298.874h-9.611V279.909h19.938v5.829a1.3,1.3,0,0,0,2.609,0V278.6a1.306,1.306,0,0,0-1.3-1.3H234.3a1.306,1.306,0,0,0-1.3,1.3v21.574a1.306,1.306,0,0,0,1.3,1.3h10.912a1.3,1.3,0,0,0,0-2.609Z" transform="translate(-226.668 -270.61)" fill="#fff" stroke="#fff" stroke-width="0.5"/>
        <path id="路径_83" data-name="路径 83" d="M401.925,420.7a1.306,1.306,0,0,0-1.3-1.3H389.6a1.3,1.3,0,0,0,0,2.609h11.02A1.3,1.3,0,0,0,401.925,420.7Zm-6.365,5.37a1.306,1.306,0,0,0-1.3-1.3H389.6a1.3,1.3,0,0,0,0,2.609h4.651A1.306,1.306,0,0,0,395.56,426.075Zm-5.955,4.066a1.3,1.3,0,1,0,0,2.609h2.214a1.3,1.3,0,1,0,0-2.609Zm20.445-3.667a1.3,1.3,0,0,0-1.845,0l-6.671,6.671-3.44-3.44a1.3,1.3,0,1,0-1.845,1.845l4.364,4.364a1.3,1.3,0,0,0,1.841,0l7.591-7.591A1.31,1.31,0,0,0,410.049,426.473Z" transform="translate(-376.181 -407.415)" fill="#fff" stroke="#fff" stroke-width="0.5"/>
      </g>
    </g>
  </g>
</svg>
