<?xml version="1.0" encoding="utf-8"?>
<svg version="1.1" xmlns:xlink="http://www.w3.org/1999/xlink" width="14px" height="14px" xmlns="http://www.w3.org/2000/svg">
  <g transform="matrix(1 0 0 1 -657 -374 )">
    <path d="M 0 7  C 0 3.13400675  3.13400675 0  7 0  C 10.8659932 0  14 3.13400675  14 7  C 14 10.8659932  10.8659932 14  7 14  C 3.13400675 14  0 10.8659932  0 7  Z M 13 7  C 13 3.6862915000000003  10.3137085 1  7 1  C 3.6862915000000003 1  1 3.6862915000000003  1 7  C 1 10.3137085  3.6862915000000003 13  7 13  C 10.3137085 13  13 10.3137085  13 7  Z M 6.412 10.176  C 6.556 10.032  6.724 9.972  6.928 9.972  C 7.132000000000001 9.972  7.311999999999999 10.032  7.456 10.176  C 7.587999999999999 10.308  7.66 10.476  7.66 10.68  C 7.66 10.896  7.587999999999999 11.064  7.444000000000001 11.196  C 7.300000000000001 11.328  7.132000000000001 11.4  6.928 11.4  C 6.724 11.4  6.556 11.328  6.412 11.196  C 6.268 11.052  6.208 10.884  6.208 10.68  C 6.208 10.476  6.268 10.308  6.412 10.176  Z M 5.092 3.4560000000000004  C 5.572 2.928  6.244 2.664  7.1080000000000005 2.664  C 7.8759999999999994 2.664  8.488 2.868  8.956 3.3  C 9.4 3.7079999999999997  9.628 4.272  9.628 4.992  C 9.628 5.532  9.472 6  9.172 6.396  C 9.052 6.54  8.728 6.852  8.2 7.32  C 7.936 7.548  7.756 7.763999999999999  7.635999999999999 7.98  C 7.480000000000001 8.244  7.4079999999999995 8.532  7.4079999999999995 8.856  L 7.4079999999999995 9.132  L 6.448 9.132  L 6.448 8.856  C 6.448 8.46  6.52 8.112  6.664 7.811999999999999  C 6.832 7.452  7.228 6.996  7.8759999999999994 6.42  C 8.068 6.228  8.212 6.084  8.284 5.988  C 8.524 5.688  8.644 5.376  8.644 5.04  C 8.644 4.56  8.5 4.188  8.236 3.9240000000000004  C 7.960000000000001 3.636  7.564 3.504  7.0600000000000005 3.504  C 6.46 3.504  6.016 3.6959999999999993  5.728 4.092  C 5.464 4.428  5.332 4.884  5.332 5.472  L 4.384 5.472  C 4.384 4.632  4.612 3.96  5.092 3.4560000000000004  Z " fill-rule="nonzero" fill="#4285f4" stroke="none" transform="matrix(1 0 0 1 657 374 )" />
  </g>
</svg>