<?xml version="1.0" encoding="utf-8"?>
<!-- Generator: Adobe Illustrator 22.0.0, SVG Export Plug-In . SVG Version: 6.00 Build 0)  -->
<svg version="1.1" id="图层_1" xmlns="http://www.w3.org/2000/svg" xmlns:xlink="http://www.w3.org/1999/xlink" x="0px" y="0px"
	 viewBox="0 0 40 40" style="enable-background:new 0 0 40 40;" xml:space="preserve">
<style type="text/css">
	.st0{fill-opacity:0;}
	.st1{fill:#ED5353;}
</style>
<title>税务系统组件包/GSD4.0-icon/填充/提示/感叹号</title>
<g id="税务系统组件包_x2F_GSD4.0-icon_x2F_填充_x2F_提示_x2F_感叹号">
	<rect id="矩形" class="st0" width="40" height="40"/>
	<path id="形状" class="st1" d="M20,1c10.5,0,19,8.5,19,19s-8.5,19-19,19S1,30.5,1,20S9.5,1,20,1z M21.5,28h-3
		c-0.2,0-0.4,0.2-0.5,0.4l0,0.1v3c0,0.2,0.2,0.4,0.4,0.5l0.1,0h3c0.2,0,0.4-0.2,0.5-0.4l0-0.1v-3C22,28.3,21.8,28.1,21.5,28L21.5,28
		z M21.5,8h-3c-0.2,0-0.4,0.2-0.5,0.4l0,0.1v15c0,0.2,0.2,0.4,0.4,0.5l0.1,0h3c0.2,0,0.4-0.2,0.5-0.4l0-0.1v-15
		C22,8.3,21.8,8.1,21.5,8L21.5,8z"/>
</g>
</svg>
