<?xml version="1.0" encoding="utf-8"?>
<svg version="1.1" xmlns:xlink="http://www.w3.org/1999/xlink" width="25px" height="24px" xmlns="http://www.w3.org/2000/svg">
  <g transform="matrix(1 0 0 1 -174 -295 )">
    <path d="M 23 11.0276367738297  L 20.2729044834308 11.0276367738297  L 20.2729044834308 13.6418202867575  C 20.2729044834308 14.2497699409268  19.7738791423002 14.7361296642622  19.0877192982456 14.7969246296791  L 5.80116959064327 14.7969246296791  C 5.17738791423002 14.7969246296791  4.61598440545809 14.3105649063437  4.61598440545809 13.6418202867575  L 4.61598440545809 10.2373022234096  L 5.80116959064327 10.2373022234096  L 5.80116959064327 13.6418202867575  L 19.0253411306043 13.6418202867575  L 19.0253411306043 7.31914388339716  C 18.7134502923977 6.9543740908956  17.4658869395711 5.61688485172322  15.9688109161793 4.15780568171698  C 13.7855750487329 2.09077685754149  12.7251461988304 1.36123727253837  12.4132553606238 1.23964734170452  C 12.1013645224172 1.36123727253837  11.0409356725146 2.09077685754149  8.85769980506823 4.15780568171698  C 7.29824561403509 5.61688485172322  6.05068226120858 6.9543740908956  5.80116959064327 7.31914388339716  L 5.80116959064327 10.1765072579927  L 4.61598440545809 10.1765072579927  L 4.61598440545809 7.13675898714638  C 4.61598440545809 6.89357912547867  4.61598440545809 6.77198919464482  5.73879142300195 5.61688485172322  C 6.3625730994152 4.94814023213703  7.17348927875244 4.09701071630006  7.98440545808967 3.36747113129694  C 11.4775828460039 0.084542998782914  12.1013645224172 0.084542998782914  12.4132553606238 0.084542998782914  C 12.7251461988304 0.084542998782914  13.411306042885 0.084542998782914  16.8421052631579 3.36747113129694  C 17.6530214424951 4.09701071630006  18.4639376218324 4.94814023213703  19.0877192982456 5.61688485172322  C 20.2105263157895 6.83278416006175  20.2105263157895 6.89357912547867  20.2105263157895 7.13675898714638  L 20.2105263157895 9.0214029150711  L 23.766081871345 9.0214029150711  C 24.3898635477583 9.0214029150711  24.8888888888889 9.50776263840651  24.8888888888889 10.0549173271588  L 24.8888888888889 22.9434499955472  C 24.8888888888889 23.4906046842996  24.3898635477583 23.976964407635  23.766081871345 24  L 1.12280701754386 24  C 0.499025341130604 23.976964407635  0 23.4906046842996  0 22.9434499955472  L 0 10.1157122925758  C 0 9.56855760382343  0.499025341130604 9.08219788048802  1.12280701754386 9.08219788048802  L 4.61598440545809 9.08219788048802  L 4.61598440545809 11.0276367738297  L 2 11.0276367738297  L 2 22  L 23 22  L 23 11.0276367738297  Z M 5.30214424951267 18.3838275892778  C 5.30214424951267 17.5326980734408  6.05068226120858 16.8031584884377  6.98635477582846 16.8031584884377  C 7.92202729044834 16.8031584884377  8.67056530214425 17.5326980734408  8.67056530214425 18.3838275892778  C 8.67056530214425 19.2349571051147  7.92202729044834 19.9644966901178  6.98635477582846 19.9644966901178  C 6.05068226120858 19.9644966901178  5.30214424951267 19.2349571051147  5.30214424951267 18.3838275892778  Z M 10.916179337232 18.3838275892778  C 10.916179337232 17.5326980734408  11.6647173489279 16.8031584884377  12.6003898635478 16.8031584884377  C 13.5360623781676 16.8031584884377  14.2846003898635 17.5326980734408  14.2846003898635 18.3838275892778  C 14.2846003898635 19.2349571051147  13.5360623781676 19.9644966901178  12.6003898635478 19.9644966901178  C 11.6647173489279 19.9644966901178  10.916179337232 19.2349571051147  10.916179337232 18.3838275892778  Z M 18.2144249512671 20.0252916555348  C 17.2787524366472 20.0252916555348  16.5302144249513 19.2957520705317  16.5302144249513 18.4446225546947  C 16.5302144249513 17.5934930388577  17.2787524366472 16.8639534538546  18.2144249512671 16.8639534538546  C 19.1500974658869 16.8639534538546  19.8986354775828 17.5934930388577  19.8986354775828 18.4446225546947  C 19.8986354775828 19.2957520705317  19.1500974658869 20.0252916555348  18.2144249512671 20.0252916555348  Z M 11.2904483430799 7.68391367589871  L 9.41910331384016 5.06973016297088  C 9.2943469785575 4.76575533588625  9.41910331384016 4.52257547421854  9.73099415204678 4.34019057796776  C 10.0428849902534 4.15780568171698  10.35477582846 4.21860064713391  10.6042884990253 4.58337043963547  L 12.2884990253411 7.13675898714638  L 14.0350877192982 4.58337043963547  C 14.2222222222222 4.27939561255084  14.5341130604288 4.15780568171698  14.8460038986355 4.34019057796776  C 15.1578947368421 4.52257547421854  15.2826510721248 4.76575533588625  15.1578947368421 5.13052512838781  L 13.4736842105263 7.68391367589872  L 14.9083820662768 7.68391367589872  C 15.0331384015595 7.80550360673257  15.0955165692008 7.92709353756642  15.0955165692008 8.1094784338172  C 15.0955165692008 8.29186333006798  15.0331384015595 8.41345326090183  14.9083820662768 8.53504319173569  L 13.037037037037 8.53504319173569  L 13.037037037037 9.2645827767388  L 14.9083820662768 9.2645827767388  C 15.0331384015595 9.38617270757265  15.1578947368421 9.50776263840651  15.0955165692008 9.69014753465729  C 15.0331384015594 9.87253243090807  15.0331384015595 9.99412236174192  14.9083820662768 10.1157122925758  L 13.037037037037 10.1157122925758  L 13.037037037037 12.0003562205005  C 13.0994152046784 12.5475109092528  12.8499025341131 12.7906907709205  12.3508771929825 12.7906907709205  C 11.8518518518518 12.7906907709205  11.6023391812865 12.5475109092528  11.6647173489279 12.0003562205005  L 11.6647173489279 10.1157122925758  L 9.85575048732943 10.1157122925758  C 9.66861598440546 9.99412236174192  9.5438596491228 9.87253243090807  9.5438596491228 9.69014753465729  C 9.5438596491228 9.50776263840651  9.66861598440546 9.32537774215573  9.85575048732943 9.2645827767388  L 11.6647173489279 9.2645827767388  L 11.6647173489279 8.53504319173569  L 9.85575048732943 8.53504319173569  C 9.66861598440546 8.41345326090183  9.60623781676413 8.29186333006798  9.5438596491228 8.1094784338172  C 9.5438596491228 7.92709353756642  9.60623781676413 7.80550360673257  9.85575048732943 7.68391367589871  L 11.2904483430799 7.68391367589871  Z " fill-rule="nonzero" fill="#4285f4" stroke="none" transform="matrix(1 0 0 1 174 295 )" />
  </g>
</svg>