<?xml version="1.0" standalone="no"?><!DOCTYPE svg PUBLIC "-//W3C//DTD SVG 1.1//EN" "http://www.w3.org/Graphics/SVG/1.1/DTD/svg11.dtd"><svg t="1666179428777" class="icon" viewBox="0 0 1024 1024" version="1.1" xmlns="http://www.w3.org/2000/svg" p-id="1482" xmlns:xlink="http://www.w3.org/1999/xlink" width="200" height="200"><path d="M420 960h4-8 3.68zM420 912a16 16 0 0 0-4 0h8a10.24 10.24 0 0 0-3.2 0h-0.8z" fill="#777777" p-id="1483"></path><path d="M176 240m24 0l496 0q24 0 24 24l0 0q0 24-24 24l-496 0q-24 0-24-24l0 0q0-24 24-24Z" fill="#777777" p-id="1484"></path><path d="M176 400m24 0l496 0q24 0 24 24l0 0q0 24-24 24l-496 0q-24 0-24-24l0 0q0-24 24-24Z" fill="#777777" p-id="1485"></path><path d="M176 576m24 0l240 0q24 0 24 24l0 0q0 24-24 24l-240 0q-24 0-24-24l0 0q0-24 24-24Z" fill="#777777" p-id="1486"></path><path d="M955.36 932.64l-96-96a160 160 0 1 0-22.56 22.56l96 96a16 16 0 0 0 22.72-22.72zM608 736a128 128 0 1 1 128 128 128 128 0 0 1-128-128z" fill="#777777" p-id="1487"></path><path d="M832 128v392a24 24 0 0 1-48 0V128a16 16 0 0 0-16-16H128a16 16 0 0 0-16 16v768a16 16 0 0 0 16 16h392a24 24 0 0 1 0 48H128a64 64 0 0 1-64-64V128a64 64 0 0 1 64-64h640a64 64 0 0 1 64 64z" fill="#777777" p-id="1488"></path></svg>