<?xml version="1.0" encoding="utf-8"?>
<svg version="1.1" xmlns:xlink="http://www.w3.org/1999/xlink" width="42px" height="40px" xmlns="http://www.w3.org/2000/svg">
  <g transform="matrix(1 0 0 1 -158 -180 )">
    <path d="M 40.8958229018555 40  L 1.10417709814453 40  L 1.10417709814453 22.4991666796875  L 4 22.4991666796875  L 4 5.0075  L 9.6306875 5.0075  L 9.6306875 0  L 38 0  L 38 22.4991666796875  L 40.8958229018555 22.4991666796875  L 40.8958229018555 40  Z M 10 22.4991666796875  L 10 7.5066666796875  L 7 7.5066666796875  L 7 22.4991666796875  L 10 22.4991666796875  Z M 35 22  L 35 3  L 13 3  L 13 22.4991666796875  L 18.1571979018555 22.4991666796875  L 18.1571979018555 27.4958333203125  L 23.8418541518555 27.4958333203125  L 23.8418541518555 22  L 35 22  Z M 38 37  L 38 25  L 26.68465625 25  L 26.68465625 30  L 15.31534375 30  L 15.31534375 25  L 4 25  L 4 37  L 38 37  Z M 15.31534375 18  L 15.31534375 15  L 32.3693125 15  L 32.3693125 18  L 15.31534375 18  Z M 15.31534375 10  L 15.31534375 8  L 32.3693125 8  L 32.3693125 10  L 15.31534375 10  Z " fill-rule="nonzero" fill="#333333" stroke="none" fill-opacity="0.596078431372549" transform="matrix(1 0 0 1 158 180 )" />
  </g>
</svg>