<?xml version="1.0" encoding="utf-8"?>
<svg version="1.1" xmlns:xlink="http://www.w3.org/1999/xlink" width="25px" height="24px" xmlns="http://www.w3.org/2000/svg">
  <g transform="matrix(1 0 0 1 -422 -297 )">
    <path d="M 24.7807692307692 19.6517647058824  C 25.0896925061618 17.9449704746463  25.0031979093976 16.1975946048298  24.5269230769231 14.5235294117647  C 23.6801241150856 11.4135634925671  21.4865506988776 8.75558305313844  18.4538461538462 7.16470588235294  C 18.3269230769231 7.09764705882353  18.1961538461538 7.03058823529412  18.0692307692308 6.97058823529412  C 18.6059021639295 6.46589288243744  19.0235519693927 5.86517953509955  19.2961538461538 5.20588235294118  C 19.3902363717095 4.97528092403836  19.4685928642332 4.73953139976254  19.5307692307692 4.5  L 19.5846153846154 4.32  L 19.5846153846154 4.26352941176471  C 19.7961538461538 3.04941176470588  19.5153846153846 2.21294117647059  18.6846153846154 1.56352941176471  C 17.7422571877427 0.797840337798961  16.4083334060282 0.588585702097598  15.2423076923077 1.0235294117647  C 13.649141965494 -0.19504270817805  11.3370154152385 -0.2024509348836  9.73461538461539 1.00588235294118  C 9.11981550514352 0.79610390838011  8.45219128290796 0.753218870104744  7.81153846153846 0.882352941176468  C 6.26055077200595 1.12766296338335  5.19456551414228 2.44955247233989  5.39230769230769 3.88235294117647  C 5.54390842295385 5.03843951889642  6.08125893654697 6.12325537927971  6.93076923076923 6.98823529411765  C 2.95713916390446 8.93159531541298  0.365812371136873 12.6267279848513  0.0846153846153855 16.7505882352941  C -0.0222015827144695 17.9643776037703  0.0856003591788288 19.186031077104  0.403846153846156 20.3682352941177  C 0.946585443901552 22.4191322379285  2.93488013569906 23.8718016455737  5.23461538461539 23.8976470588235  L 19.8076923076923 23.8976470588235  C 21.4724381723163 23.9200154401006  23.0293936721152 23.14411031991  23.9153846153846 21.8505882352941  C 24.3829973518384 21.1878858552376  24.6790247902822 20.4357207653689  24.7807692307692 19.6517647058824  Z M 23.4 14.7847058823529  C 23.8400798607981 16.3124888451915  23.9265518717822 17.9079205687069  23.6538461538462 19.4682352941176  C 23.5773636474437 20.0960504612715  23.345852184793 20.699589702139  22.9769230769231 21.2329411764706  C 22.3005854409939 22.2386411602807  21.0952808489811 22.841327873894  19.8076923076923 22.8176470588235  L 5.22307692307692 22.8176470588235  C 3.45086451937814 22.7926506633888  1.92278417666534 21.6679537240379  1.51153846153846 20.0858823529412  C 1.22236113257767 19.0145103386858  1.12621855603139 17.9069295148866  1.22692307692308 16.8070588235294  C 1.48767212791224 12.8557742463734  4.08171338444734 9.35150104682046  7.98846153846154 7.67294117647059  L 8.83846153846154 7.29529411764706  L 8.12307692307692 6.58941176470588  C 8.01153846153846 6.48705882352941  7.9 6.38117647058824  7.79615384615385 6.27529411764706  C 7.0944365659085 5.56614271290842  6.65432982947409 4.6719636296228  6.53846153846154 3.72  C 6.43146111817045 2.83351277992897  7.11394259464147 2.03031237406098  8.07692307692308 1.90941176470588  C 8.24529756231196 1.87782471712832  8.41661017746787 1.86127687318756  8.58846153846154 1.86  C 8.911400717444 1.86037087828031  9.23036084517249 1.92541372785631  9.52307692307692 2.05058823529411  C 9.80188202285205 2.17873877513107  10.1389176641608 2.12742968969897  10.3576923076923 1.9235294117647  C 11.5899384560634 0.907260441788252  13.462412271614 0.917961412096926  14.6807692307692 1.94823529411765  C 14.898113566938 2.14428338311253  15.2269459858038 2.19245038531259  15.5 2.06823529411764  C 16.3085116001516 1.69117052340218  17.2864465285373 1.80895415668863  17.9615384615385 2.36470588235294  C 18.4 2.71764705882353  18.6384615384615 3.10941176470588  18.4769230769231 4.06588235294118  L 18.4307692307692 4.22470588235294  C 18.3748306638555 4.43376631960803  18.3067853714914 4.63994128981207  18.2269230769231 4.84235294117647  C 17.9383069023013 5.49440958090485  17.4879112240838 6.07569424053208  16.9115384615385 6.54  L 16.6153846153846 6.80470588235294  L 16.3461538461538 7.35882352941176  L 16.8230769230769 7.58470588235294  L 17.1692307692308 7.74705882352941  C 17.4115384615385 7.85647058823529  17.6423076923077 7.96235294117647  17.8615384615385 8.07882352941176  C 20.624166493373 9.53045993131189  22.623781085798 11.9515619133167  23.4 14.7847058823529  Z " fill-rule="nonzero" fill="#4285f4" stroke="none" transform="matrix(1 0 0 1 422 297 )" />
  </g>
</svg>