<?xml version="1.0" encoding="utf-8"?>
<svg version="1.1" xmlns:xlink="http://www.w3.org/1999/xlink" width="25px" height="18px" xmlns="http://www.w3.org/2000/svg">
  <g transform="matrix(1 0 0 1 -908 -366 )">
    <path d="M 13.8041733508164 13.5479744024021  L 13.8041733508164 13.5575693038713  L 13.7138844419329 13.5575693038713  L 9.94181380025457 12.1950959450793  C 9.6319788768985 12.0810265280595  9.42756147868562 11.7962745584721  9.42756147868562 11.4787461494559  C 9.42756147868562 11.2666871694236  9.5192871077447 11.0640761166598  9.68097914106391 10.9189765420942  L 12.6906099400895 8.2228145026819  C 12.9066616773797 8.03188047070364  13.2146166329426 7.96929207210988  13.4931781623069 8.05970149253731  L 16.7134831460674 9.11513858150653  C 16.9635783666158 9.19561584982686  17.155392704186 9.38986196997175  17.2251203969891 9.63326226387593  C 19.2290547762813 8.70424831756039  21.5925924873542 8.83124437367774  23.4751203969891 9.96908315939832  C 24.4783306816187 7.54157783640392  25.0501605293188 5.29637527402052  24.9297752808989 4.43283582089552  C 24.6288121872806 2.26439231284981  15.0581861997454 -0.364605547458024  11.6372391535727 0.201492537313432  C 7.90529694632198 0.757995746851679  -0.601926159805127 6.20788912954757  0.0702247191011236 11.4371002244636  C 0.300963093618329 13.2697228369869  8.85834670163272 16.771855025653  14.2455858826369 17.9424306961287  C 13.5320837609013 16.5811091767868  13.3747031252362 15.0143155879039  13.8041733508164 13.5479744024021  Z M 15.4293739850334 5.7953091796875  L 15.439406107356 5.7953091796875  L 17.3154093058725 4.13539445254198  C 17.5293530781867 3.94803220269487  17.8323588050257 3.8856701544656  18.1079454331987 3.97228144239739  L 20.4454253533181 4.69189766208022  C 20.7761640671071 4.79462154527075  21.000108926162 5.08937196461879  21.000108926162 5.42195780452406  C 21.000108926162 5.60022687055007  20.9352321685598 5.7729373707193  20.8166131660376 5.91044776119403  L 19.2616372509217 7.72388059701492  C 19.0489074367543 7.97274802058573  18.6965727265907 8.06848075156091  18.3788121872805 7.9637526614972  L 15.7203049837605 7.09061833313899  C 15.3911313943919 6.98697815687459  15.1686912385408 6.69296599192459  15.1686912385408 6.36151818111062  C 15.1686912385408 6.14616366540952  15.2632801963835 5.94071424427846  15.4293739850334 5.7953091796875  Z M 9.57062601496664 3.84754798565765  L 9.5806581098578 3.87633261135728  L 11.4466292134831 2.34115139342351  C 11.6582317133002 2.16410700985097  11.9512697833348 2.10586973626103  12.2191011235955 2.18763325851213  L 14.5064205418276 2.87846482625933  C 14.8393703376052 2.97987524855001  15.0654533406999 3.27566582039528  15.0654533406999 3.60986271550907  C 15.0654533406999 3.82403576432089  14.9718958801725 4.02846931373567  14.8073836354459 4.17377397971082  L 13.031701440704 5.77611940298507  C 12.8156497034139 5.96705343496334  12.5076947478509 6.0296418335571  12.2291332184867 5.93923241312966  L 9.84149276904845 5.15245201434235  C 9.51561707819361 5.04691723738245  9.29632405655354 4.75446606103368  9.29632405655354 4.42541004061568  C 9.29632405655354 4.20396426772371  9.39631926244485 3.99330796947271  9.57062601496664 3.84754798565765  Z M 6.55096309361833 10.9477611940299  L 6.57102728340063 10.9765458459655  L 3.93258426966292 10.0170575618004  C 3.61773453651532 9.90553711247397  3.40874102569068 9.61835884942078  3.40874102569068 9.29724385886524  C 3.40874102569068 9.07193114031417  3.51224483343946 8.85799647492333  3.69181380025457 8.71215350687967  L 6.70144462671173 6.21748400478079  C 6.91325255449449 6.03363452971016  7.21135906449622 5.97149420853715  7.48394863171524 6.0543709946362  L 10.0321027365695 6.88912579582556  C 10.3572089535294 6.99509562706704  10.5757721923851 7.28718153011993  10.5757721923851 7.61568065837049  C 10.5757721923851 7.82742982747607  10.4843135154675 8.02977329107888  10.3230337078652 8.17484007404385  L 7.38362760050913 10.7942430591185  C 7.1593041183206 10.9929285261804  6.8364344627715 11.0524559191811  6.55096309361833 10.9477611940299  Z " fill-rule="nonzero" fill="#4285f4" stroke="none" fill-opacity="0.698039215686274" transform="matrix(1 0 0 1 908 366 )" />
  </g>
</svg>