<svg height="56" viewBox="0 0 56 56" width="56" xmlns="http://www.w3.org/2000/svg" xmlns:xlink="http://www.w3.org/1999/xlink"><mask id="a" fill="#fff"><path d="m0 0h46v46h-46z" fill="#fff" fill-rule="evenodd"/></mask><g fill="none" fill-rule="evenodd"><path d="m0 0h56v56h-56z" fill="none"/><g opacity="0"><path d="m5 5h46v46h-46z" fill="#efefef"/><g stroke="#558aff" stroke-dasharray="0 0" stroke-linejoin="round"><path d="m23.386675-91.548189v229" mask="url(#a)" opacity=".5" transform="matrix(.70710678 .70710678 -.70710678 .70710678 28.225626 -5.168)"/><path d="m23.227946-91.306809v229" mask="url(#a)" opacity=".5" transform="matrix(.25881901 .96592584 -.96592584 .25881901 44.989605 -.729084)"/><path d="m23.227916-91.289261v229" mask="url(#a)" opacity=".5" transform="matrix(-.25881908 .96592582 -.96592582 -.25881908 57.289005 11.298714)"/><path d="m22.326059-91.194884v229" mask="url(#a)" opacity=".5" transform="matrix(-.70710684 .70710672 -.70710672 -.70710684 60.445726 28.643863)"/><path d="m22.132043-91.530852v229" mask="url(#a)" opacity=".5" transform="matrix(-.96592585 .25881896 -.25881896 -.96592585 55.437769 44.29804)"/><path d="m22.197502-91.772086v229" mask="url(#a)" opacity=".5" transform="matrix(-.9659258 -.25881915 .25881915 -.9659258 43.739185 55.555941)"/></g><circle cx="28" cy="28" r="16.5" stroke="#979797"/><path d="m13.5 10.5h29v35h-29z" stroke="#d4d4d4"/><path d="m10.5 11.5h35v33h-35z" stroke="#d4d4d4"/><path d="m11.5 11.5h33v33h-33z" stroke="#979797"/><path d="m13.5 11.5h29v33h-29z" stroke="#6b6b6b"/><path d="m11.5 13.5h33v29h-33z" stroke="#6b6b6b"/></g><path d="m9 5h38c2.209139 0 4 1.790861 4 4v38c0 2.209139-1.790861 4-4 4h-38c-2.209139 0-4-1.790861-4-4v-38c0-2.209139 1.790861-4 4-4z" fill="#5590e8"/><path d="m43 15c.5522847 0 1 .4477153 1 1v9c-1.6568542 0-3 1.3431458-3 3s1.3431458 3 3 3v9c0 .5522847-.4477153 1-1 1h-30c-.5522847 0-1-.4477153-1-1v-9c1.6568542 0 3-1.3431458 3-3s-1.3431458-3-3-3v-9c0-.5522847.4477153-1 1-1zm-2 3h-26l.0004757 4.8029684c1.7931418 1.0374959 2.9995243 2.9763809 2.9995243 5.1970316 0 2.1352411-1.1153685 4.0099739-2.7952626 5.0733556l-.2042617.123676-.0004757 4.8029684h26l.0000394-4.8026704c-1.7934258-1.0374226-3.0000394-2.9764663-3.0000394-5.1973296 0-2.1354455 1.1155821-4.0103329 2.7957451-5.073661l.2042943-.1236686zm-10.0104076 3.9895924 4.9497474 4.9497474c.5857865.5857865.5857865 1.5355339 0 2.1213204l-.0162634.0148492-4.933484 4.9348982c-.5857865.5857865-1.5355339.5857865-2.1213204 0-.5857864-.5857864-.5857864-1.5355339 0-2.1213203l2.387728-2.3898348-9.756.0007475c-.8284271 0-1.5-.6715729-1.5-1.5s.6715729-1.5 1.5-1.5l9.756-.0007475-2.387728-2.3883398c-.5857864-.5857864-.5857864-1.5355339 0-2.1213203.5857865-.5857865 1.5355339-.5857865 2.1213204 0z" fill="#fff"/></g></svg>