<svg height="56" viewBox="0 0 56 56" width="56" xmlns="http://www.w3.org/2000/svg" xmlns:xlink="http://www.w3.org/1999/xlink"><mask id="a" fill="#fff"><path d="m0 0h46v46h-46z" fill="#fff" fill-rule="evenodd"/></mask><g fill="none" fill-rule="evenodd"><path d="m0 0h56v56h-56z" fill="none"/><g opacity="0"><path d="m5 5h46v46h-46z" fill="#efefef"/><g stroke="#558aff" stroke-dasharray="0 0" stroke-linejoin="round"><path d="m23.386675-91.548189v229" mask="url(#a)" opacity=".5" transform="matrix(.70710678 .70710678 -.70710678 .70710678 28.225626 -5.168)"/><path d="m23.227946-91.306809v229" mask="url(#a)" opacity=".5" transform="matrix(.25881901 .96592584 -.96592584 .25881901 44.989605 -.729084)"/><path d="m23.227916-91.289261v229" mask="url(#a)" opacity=".5" transform="matrix(-.25881908 .96592582 -.96592582 -.25881908 57.289005 11.298714)"/><path d="m22.326059-91.194884v229" mask="url(#a)" opacity=".5" transform="matrix(-.70710684 .70710672 -.70710672 -.70710684 60.445726 28.643863)"/><path d="m22.132043-91.530852v229" mask="url(#a)" opacity=".5" transform="matrix(-.96592585 .25881896 -.25881896 -.96592585 55.437769 44.29804)"/><path d="m22.197502-91.772086v229" mask="url(#a)" opacity=".5" transform="matrix(-.9659258 -.25881915 .25881915 -.9659258 43.739185 55.555941)"/></g><circle cx="28" cy="28" r="16.5" stroke="#979797"/><path d="m13.5 10.5h29v35h-29z" stroke="#d4d4d4"/><path d="m10.5 11.5h35v33h-35z" stroke="#d4d4d4"/><path d="m11.5 11.5h33v33h-33z" stroke="#979797"/><path d="m13.5 11.5h29v33h-29z" stroke="#6b6b6b"/><path d="m11.5 13.5h33v29h-33z" stroke="#6b6b6b"/></g><path d="m9 5h38c2.209139 0 4 1.790861 4 4v38c0 2.209139-1.790861 4-4 4h-38c-2.209139 0-4-1.790861-4-4v-38c0-2.209139 1.790861-4 4-4z" fill="#5590e8"/><path d="m26 14c.5522847 0 1 .4477153 1 1v11c0 .5522847-.4477153 1-1 1h-11c-.5522847 0-1-.4477153-1-1v-11c0-.5522847.4477153-1 1-1zm-2 3h-7v7h7zm-2 2v3h-3v-3zm19-5c.5522847 0 1 .4477153 1 1v11c0 .5522847-.4477153 1-1 1h-11c-.5522847 0-1-.4477153-1-1v-11c0-.5522847.4477153-1 1-1zm-2 3h-7v7h7zm-2 2v3h-3v-3zm-11 10c.5522847 0 1 .4477153 1 1v11c0 .5522847-.4477153 1-1 1h-11c-.5522847 0-1-.4477153-1-1v-11c0-.5522847.4477153-1 1-1zm-2 3h-7v7h7zm-2 2v3h-3v-3zm20 7c0 .5128358-.3860402.9355072-.8833789.9932723l-.1166211.0067277h-6c-.5522847 0-1-.4477153-1-1v-9h-2v9c0 .5522847-.4477153 1-1 1h-1c-.5522847 0-1-.4477153-1-1v-11c0-.5522847.4477153-1 1-1h6c.5522847 0 1 .4477153 1 1v9h2v-9c0-.5522847.4477153-1 1-1h1c.5522847 0 1 .4477153 1 1z" fill="#fff"/></g></svg>