<svg id="汇总纳税分支机构开票数据查询" xmlns="http://www.w3.org/2000/svg" width="56" height="56" viewBox="0 0 56 56">
  <rect id="Rectangle_321" data-name="Rectangle 321" width="56" height="56" fill="#c4c4c4" opacity="0"/>
  <rect id="Rectangle_321-2" data-name="Rectangle 321" width="56" height="56" fill="#f17c38" opacity="0"/>
  <rect id="Rectangle_322" data-name="Rectangle 322" width="46" height="46" rx="4" transform="translate(5 5)" fill="#5590e8"/>
  <g id="组_28" data-name="组 28" transform="translate(-91.922 -88.061)">
    <line id="直线_32" data-name="直线 32" y2="16.316" transform="translate(115.113 107.846)" fill="none" stroke="#fff" stroke-linecap="round" stroke-miterlimit="10" stroke-width="3"/>
    <path id="路径_43" data-name="路径 43" d="M116.291,125.073a9.366,9.366,0,0,1,1.865-2.53c1.771-1.633,5.714-1.586,7.048-3.317,1.574-2.044,1.225-5.226,1.225-5.226" transform="translate(-0.856 -3.055)" fill="none" stroke="#fff" stroke-linecap="round" stroke-miterlimit="10" stroke-width="3"/>
    <path id="路径_44" data-name="路径 44" d="M118.3,134.253a3.191,3.191,0,1,1-3.19-3.19A3.191,3.191,0,0,1,118.3,134.253Z" transform="translate(0 -6.85)" fill="none" stroke="#fff" stroke-linecap="round" stroke-miterlimit="10" stroke-width="3"/>
    <path id="路径_45" data-name="路径 45" d="M118.3,104.252a3.191,3.191,0,1,1-3.19-3.191A3.19,3.19,0,0,1,118.3,104.252Z" fill="none" stroke="#fff" stroke-linecap="round" stroke-miterlimit="10" stroke-width="3"/>
    <path id="路径_46" data-name="路径 46" d="M130.544,110.5a2.186,2.186,0,1,1-2.186-2.186A2.186,2.186,0,0,1,130.544,110.5Z" transform="translate(-2.792 -1.637)" fill="none" stroke="#fff" stroke-linecap="round" stroke-miterlimit="10" stroke-width="3"/>
  </g>
</svg>
