<svg xmlns="http://www.w3.org/2000/svg" width="56" height="56" viewBox="0 0 56 56" fill="none">
  <path d="M47 5H9C6.79086 5 5 6.79086 5 9V47C5 49.2091 6.79086 51 9 51H47C49.2091 51 51 49.2091 51 47V9C51 6.79086 49.2091 5 47 5Z" fill="#5590E8"></path>
  <path d="M22.4569 38.591H13.0039V13H36.0289V22.183" stroke="white" stroke-width="3" stroke-linecap="round" stroke-linejoin="round"></path>
  <path d="M26.6848 17.674L17.6848 26.674" stroke="white" stroke-width="3" stroke-linecap="round"></path>
  <path d="M25.1848 27.7959C26.2894 27.7959 27.1848 26.9005 27.1848 25.7959C27.1848 24.6913 26.2894 23.7959 25.1848 23.7959C24.0802 23.7959 23.1848 24.6913 23.1848 25.7959C23.1848 26.9005 24.0802 27.7959 25.1848 27.7959Z" fill="white"></path>
  <path d="M18.6848 21.174C19.7894 21.174 20.6848 20.2785 20.6848 19.174C20.6848 18.0694 19.7894 17.174 18.6848 17.174C17.5802 17.174 16.6848 18.0694 16.6848 19.174C16.6848 20.2785 17.5802 21.174 18.6848 21.174Z" fill="white"></path>
  <path d="M33 38C35.7614 38 38 35.7614 38 33C38 30.2386 35.7614 28 33 28C30.2386 28 28 30.2386 28 33C28 35.7614 30.2386 38 33 38Z" stroke="white" stroke-width="3"></path>
  <path d="M39.2119 39.765L42.5279 43.081" stroke="white" stroke-width="3" stroke-linecap="round"></path>
</svg>