<svg id="组件_39_2" data-name="组件 39 – 2" xmlns="http://www.w3.org/2000/svg" width="56" height="56" viewBox="0 0 56 56">
  <rect id="Rectangle_313" data-name="Rectangle 313" width="56" height="56" fill="#c4c4c4" opacity="0"/>
  <rect id="矩形" width="46" height="46" rx="4" transform="translate(5 5)" fill="#e86060"/>
  <g id="组_27" data-name="组 27" transform="translate(-1139 -1078.576)">
    <path id="路径_35" data-name="路径 35" d="M208.9,286.508h-9.453V260.917h23.025V270.1" transform="translate(953.557 832.659)" fill="none" stroke="#fff" stroke-linecap="round" stroke-linejoin="round" stroke-width="3"/>
    <line id="直线_46" data-name="直线 46" x2="12" transform="translate(1158.513 1099.076)" fill="none" stroke="#fff" stroke-linecap="round" stroke-width="3"/>
    <line id="直线_47" data-name="直线 47" x2="4" transform="translate(1158.513 1105.076)" fill="none" stroke="#fff" stroke-linecap="round" stroke-width="3"/>
    <path id="路径_64" data-name="路径 64" d="M-211.564,138.329a6.843,6.843,0,0,1-6.843,6.843,6.844,6.844,0,0,1-6.844-6.843,6.844,6.844,0,0,1,6.844-6.844A6.843,6.843,0,0,1-211.564,138.329Z" transform="translate(1393.25 976.157)" fill="none" stroke="#fff" stroke-linecap="round" stroke-linejoin="round" stroke-width="3"/>
    <line id="直线_50" data-name="直线 50" y2="5.907" transform="translate(1174.78 1108.5)" fill="none" stroke="#fff" stroke-linecap="round" stroke-linejoin="round" stroke-width="3"/>
    <line id="直线_51" data-name="直线 51" x2="3.188" transform="translate(1174.78 1114.485)" fill="none" stroke="#fff" stroke-linecap="round" stroke-linejoin="round" stroke-width="3"/>
  </g>
</svg>
