<svg id="纸质发票退回" xmlns="http://www.w3.org/2000/svg" width="56" height="56" viewBox="0 0 56 56">
  <rect id="Rectangle_309" data-name="Rectangle 309" width="56" height="56" fill="#c4c4c4" opacity="0"/>
  <rect id="Rectangle_311" data-name="Rectangle 311" width="46" height="46" rx="4" transform="translate(5 5)" fill="#12b787"/>
  <g id="路径_19" data-name="路径 19" transform="translate(-121.125 -236.122)" fill="none" stroke-miterlimit="10">
    <path d="M162.448,265.137a2.686,2.686,0,0,1,2.677-2.686V252.122h-32v10.329a2.687,2.687,0,0,1,0,5.373v10.328h32V267.824A2.687,2.687,0,0,1,162.448,265.137Z" stroke="none"/>
    <path d="M 136.125 255.1220092773438 L 136.125 260.3165588378906 C 137.73095703125 261.3237609863281 138.802001953125 263.1099243164062 138.802001953125 265.1369934082031 C 138.802001953125 267.1644287109375 137.73095703125 268.9508972167969 136.125 269.9582824707031 L 136.125 275.1520080566406 L 162.125 275.1520080566406 L 162.125 269.9582824707031 C 160.51904296875 268.9508972167969 159.447998046875 267.1644287109375 159.447998046875 265.1369934082031 C 159.447998046875 263.1099243164062 160.51904296875 261.3237609863281 162.125 260.3165588378906 L 162.125 255.1220092773438 L 136.125 255.1220092773438 M 133.125 252.1220092773438 L 165.125 252.1220092773438 L 165.125 262.4509887695312 C 163.6450042724609 262.4570007324219 162.447998046875 263.656005859375 162.447998046875 265.1369934082031 C 162.447998046875 266.6180114746094 163.6450042724609 267.8179931640625 165.125 267.8240051269531 L 165.125 278.1520080566406 L 133.125 278.1520080566406 L 133.125 267.8240051269531 C 134.60400390625 267.8179931640625 135.802001953125 266.6180114746094 135.802001953125 265.1369934082031 C 135.802001953125 263.656005859375 134.60400390625 262.4570007324219 133.125 262.4509887695312 L 133.125 252.1220092773438 Z" stroke="none" fill="#fff"/>
  </g>
  <g id="组_31" data-name="组 31" transform="translate(0 1)">
    <path id="路径_51" data-name="路径 51" d="M0,0V9.779a4.89,4.89,0,0,0,9.779,0V0" transform="translate(20.611 34.374) rotate(-90)" fill="none" stroke="#fff" stroke-linecap="round" stroke-miterlimit="10" stroke-width="3"/>
    <line id="直线_38" data-name="直线 38" x2="2.967" y2="2.967" transform="translate(20.611 24.594) rotate(-90)" fill="none" stroke="#fff" stroke-linecap="round" stroke-miterlimit="10" stroke-width="3"/>
    <line id="直线_39" data-name="直线 39" x1="3.043" y2="3.043" transform="translate(20.611 27.637) rotate(-90)" fill="none" stroke="#fff" stroke-linecap="round" stroke-miterlimit="10" stroke-width="3"/>
  </g>
</svg>
